<svg width="480" height="88" viewBox="0 0 480 88" fill="none" xmlns="http://www.w3.org/2000/svg">
<g clip-path="url(#clip0_448_8170)">
<g filter="url(#filter0_d_448_8170)">
<path d="M23.8083 102.401L-24.7149 77.6158C-27.0814 76.407 -27.9269 73.6752 -26.6034 71.5138L14.9034 3.73147C16.227 1.57012 19.2181 0.797967 21.5846 2.00676L70.1066 26.7916C72.4745 28.0012 73.32 30.733 71.9964 32.8944L30.4905 100.675C29.1661 102.838 26.1748 103.61 23.8083 102.401Z" fill="#EFF2FA"/>
<path d="M-25.0547 75.4876L18.615 97.7939L14.2176 53.673L10.2744 11.238L-26.4838 71.2658C-27.3834 72.7348 -26.7436 74.6249 -25.0547 75.4876Z" fill="#D9DDE1"/>
<path d="M37.3221 45.61C40.0989 41.4297 38.5555 35.8439 33.7698 33.3994C28.984 30.9549 22.9651 32.6778 20.5189 37.0269C16.3734 36.0298 11.8448 37.6674 9.65724 41.2399C7.06533 45.4726 8.72749 50.8435 13.3619 53.2108C14.8918 53.9922 16.5589 54.3482 18.1971 54.325L15.2142 59.1962L13.1128 58.1228C11.9528 57.5303 10.4848 57.9092 9.83602 58.9687C9.18726 60.0281 9.60219 61.3689 10.7622 61.9614L19.168 66.255C20.328 66.8476 21.796 66.4686 22.4448 65.4092C23.0935 64.3497 22.6786 63.009 21.5186 62.4164L19.4171 61.343L22.4 56.4718C23.2359 57.7589 24.4408 58.8698 25.9706 59.6513C30.605 62.0185 36.4857 60.5004 39.0776 56.2677C41.2652 52.6953 40.4224 48.314 37.3221 45.61Z" fill="#404D81"/>
<path d="M39.0784 56.2675C36.4865 60.5002 30.6058 62.0183 25.9714 59.651C24.4415 58.8696 23.2367 57.7586 22.4008 56.4716L19.4179 61.3428L21.5193 62.4162C22.6793 63.0087 23.0943 64.3495 22.4455 65.4089C21.7967 66.4684 20.3288 66.8473 19.1688 66.2548L14.9658 64.108L33.7705 33.3992C38.5562 35.8437 40.0997 41.4295 37.3229 45.6097C40.4232 48.3137 41.266 52.695 39.0784 56.2675Z" fill="#2E3963"/>
<path d="M29.1666 87.7987C30.0922 86.4053 29.5777 84.5434 27.9825 83.7285C26.3873 82.9137 24.3809 83.488 23.5655 84.9377C22.1837 84.6053 20.6742 85.1512 19.945 86.342C19.081 87.7529 19.6351 89.5432 21.1799 90.3323C21.6898 90.5928 22.2455 90.7115 22.7916 90.7037L21.7973 92.3274L21.0968 91.9696C20.7102 91.7721 20.2208 91.8984 20.0046 92.2516C19.7883 92.6048 19.9266 93.0517 20.3133 93.2492L23.1152 94.6804C23.5019 94.8779 23.9912 94.7516 24.2075 94.3984C24.4238 94.0453 24.2854 93.5984 23.8988 93.4009L23.1983 93.0431L24.1926 91.4193C24.4712 91.8483 24.8728 92.2186 25.3828 92.4791C26.9276 93.2682 28.8878 92.7622 29.7518 91.3513C30.481 90.1605 30.2001 88.7 29.1666 87.7987Z" fill="#404D81"/>
<path d="M29.7527 91.3513C28.8887 92.7622 26.9285 93.2682 25.3837 92.4791C24.8737 92.2187 24.4721 91.8483 24.1935 91.4193L23.1992 93.0431L23.8997 93.4009C24.2863 93.5984 24.4247 94.0453 24.2084 94.3984C23.9921 94.7516 23.5028 94.8779 23.1161 94.6804L21.7152 93.9648L27.9834 83.7285C29.5786 84.5434 30.0931 86.4053 29.1675 87.7987C30.201 88.7 30.4819 90.1605 29.7527 91.3513Z" fill="#2E3963"/>
<path d="M26.5279 11.515C27.4536 10.1216 26.9391 8.25967 25.3438 7.44482C23.7486 6.62998 21.7423 7.20429 20.9269 8.654C19.545 8.32162 18.0355 8.8675 17.3063 10.0583C16.4423 11.4692 16.9964 13.2595 18.5412 14.0486C19.0512 14.3091 19.6069 14.4278 20.1529 14.42L19.1586 16.0438L18.4582 15.6859C18.0715 15.4884 17.5822 15.6148 17.3659 15.9679C17.1497 16.3211 17.288 16.768 17.6746 16.9655L20.4766 18.3967C20.8632 18.5942 21.3526 18.4679 21.5688 18.1147C21.7851 17.7616 21.6468 17.3147 21.2601 17.1172L20.5596 16.7594L21.5539 15.1356C21.8325 15.5646 22.2342 15.935 22.7441 16.1954C24.2889 16.9845 26.2491 16.4785 27.1131 15.0676C27.8423 13.8768 27.5614 12.4163 26.5279 11.515Z" fill="#404D81"/>
<path d="M27.114 15.0683C26.25 16.4792 24.2898 16.9853 22.745 16.1962C22.2351 15.9357 21.8334 15.5654 21.5548 15.1364L20.5605 16.7601L21.261 17.1179C21.6477 17.3154 21.786 17.7623 21.5697 18.1155C21.3535 18.4686 20.8641 18.5949 20.4775 18.3974L19.0765 17.6818L25.3447 7.44556C26.94 8.2604 27.4545 10.1223 26.5288 11.5157C27.5623 12.4171 27.8432 13.8775 27.114 15.0683Z" fill="#2E3963"/>
</g>
<g filter="url(#filter1_d_448_8170)">
<path d="M64.7397 120.567L10.8266 123.819C8.19729 123.978 5.92537 122.163 5.75197 119.765L0.313959 44.5636C0.140559 42.1657 2.13136 40.0934 4.7607 39.9348L58.6723 36.6828C61.3033 36.5241 63.5752 38.3393 63.7486 40.7372L69.1865 115.937C69.36 118.336 67.3691 120.409 64.7397 120.567Z" fill="#EFF2FA"/>
<path d="M9.46397 123.902L57.9843 120.975L28.8371 87.19L1.03711 54.5579L5.85299 121.156C5.97085 122.786 7.58747 124.015 9.46397 123.902Z" fill="#D9DDE1"/>
<path d="M41.4698 65.1121C38.4346 65.2952 35.8757 66.6703 34.0272 69.1012L34.0256 69.1029C31.843 66.9136 29.1066 65.8578 26.0713 66.0409C20.1241 66.3997 16.133 71.1867 16.5314 76.6964C17.0366 83.6821 24.4251 87.5712 34.1539 94.3562C34.6661 94.714 35.284 94.8695 35.8879 94.8331C36.4902 94.7967 37.0784 94.5669 37.5348 94.1523C46.2019 86.256 52.9663 81.5132 52.4613 74.5291C52.0628 69.0194 47.4154 64.7534 41.4698 65.1121Z" fill="#FF655D"/>
<path d="M37.5359 94.1516C37.0796 94.5662 36.4913 94.796 35.8891 94.8324L34.0283 69.1005C35.8768 66.6696 38.4358 65.2944 41.471 65.1114C47.4165 64.7527 52.064 69.0187 52.4624 74.5283C52.9674 81.5125 46.2031 86.2553 37.5359 94.1516Z" fill="#FF3A30"/>
<path d="M13.9585 44.3169C12.9873 44.3755 12.1684 44.8156 11.5769 45.5934L11.5764 45.594C10.878 44.8934 10.0023 44.5556 9.03107 44.6141C7.12798 44.7289 5.85083 46.2608 5.9783 48.0238C6.13993 50.2592 8.50423 51.5037 11.6174 53.675C11.7813 53.7894 11.979 53.8392 12.1723 53.8275C12.365 53.8159 12.5532 53.7424 12.6992 53.6097C15.4727 51.0829 17.6373 49.5653 17.4757 47.3304C17.3483 45.5673 15.8611 44.2022 13.9585 44.3169Z" fill="#FF655D"/>
<path d="M12.7 53.6105C12.554 53.7432 12.3657 53.8167 12.173 53.8283L11.5776 45.5942C12.1692 44.8164 12.988 44.3763 13.9593 44.3177C15.8618 44.203 17.349 45.5681 17.4765 47.3312C17.6381 49.5661 15.4735 51.0837 12.7 53.6105Z" fill="#FF3A30"/>
</g>
<g filter="url(#filter2_d_448_8170)">
<path d="M17.8614 167.091L-31.6298 144.575C-34.0435 143.477 -35.0255 140.8 -33.8232 138.595L3.88266 69.4609C5.08497 67.2564 8.01612 66.3596 10.4298 67.4577L59.9198 89.9729C62.3349 91.0717 63.3169 93.7487 62.1146 95.9532L24.4096 165.086C23.2065 167.292 20.2751 168.189 17.8614 167.091Z" fill="#EFF2FA"/>
<path d="M-32.8797 144.006L11.6611 164.269L4.99759 120.631L-1.12695 78.6487L-34.519 139.874C-35.3362 141.372 -34.6023 143.222 -32.8797 144.006Z" fill="#D9DDE1"/>
<path d="M14.04 74.9458C13.9624 74.773 13.8205 74.6402 13.6493 74.5623C13.4781 74.4844 13.2766 74.4609 13.0788 74.5085C9.32391 75.409 6.64195 75.7225 5.55746 77.711C4.70193 79.2796 5.22722 81.1271 6.91749 81.8961C7.45157 82.1391 8.01577 82.23 8.58945 82.1699L7.7407 83.7261L7.01109 83.3942C6.60834 83.211 6.11866 83.3608 5.91804 83.7286C5.71743 84.0965 5.88147 84.5437 6.28422 84.7269L9.20267 86.0547C9.60541 86.2379 10.0951 86.0881 10.2957 85.7202C10.4963 85.3524 10.3323 84.9051 9.92954 84.7219L9.19993 84.39L10.0487 82.8338C10.3418 83.2882 10.7611 83.6447 11.2952 83.8877C12.9859 84.6569 14.9165 83.9267 15.772 82.3581C16.8568 80.3692 15.5152 78.2251 14.04 74.9458Z" fill="#404D81"/>
<path d="M15.7712 82.3583C14.9157 83.9269 12.9851 84.6571 11.2943 83.8879C10.7602 83.6449 10.3409 83.2884 10.0478 82.834L9.19909 84.3902L9.9287 84.7221C10.3314 84.9053 10.4955 85.3526 10.2949 85.7204C10.0943 86.0883 9.60457 86.2381 9.20183 86.0549L7.7426 85.391L13.6484 74.5625C13.8197 74.6404 13.9616 74.7732 14.0391 74.9459C15.5143 78.2253 16.8559 80.3694 15.7712 82.3583Z" fill="#2E3963"/>
</g>
<circle cx="458" cy="67.9999" r="48.8046" fill="url(#paint0_radial_448_8170)" stroke="#2C3763" stroke-width="4"/>
<circle cx="458" cy="68" r="66" fill="url(#paint1_radial_448_8170)" stroke="#2C3763" stroke-width="4"/>
<circle cx="458.137" cy="68.0465" r="34.7816" transform="rotate(90 458.137 68.0465)" fill="#FFDAE2"/>
<ellipse cx="435.188" cy="67.0286" rx="5.05405" ry="5.14595" transform="rotate(84.255 435.188 67.0286)" fill="#FEAFBD"/>
<ellipse cx="445.584" cy="52.868" rx="2.11351" ry="2.02162" transform="rotate(84.255 445.584 52.868)" fill="#FEAFBD"/>
<circle cx="436.044" cy="55.2973" r="2.96484" transform="rotate(84.255 436.044 55.2973)" fill="#FEAFBD"/>
<circle cx="474.577" cy="83.9769" r="5.13632" transform="rotate(90 474.577 83.9769)" fill="#FEAFBD"/>
<path d="M464.284 65.4036L463.724 64.8437L458.059 59.1785L452.384 64.8437L451.824 65.4036C450.256 66.9716 450.256 69.5102 451.824 71.0782C452.608 71.8622 453.635 72.2541 454.662 72.2541C455.688 72.2541 456.715 71.8622 457.499 71.0782L458.059 70.5182L458.619 71.0782C459.403 71.8622 460.43 72.2541 461.456 72.2541C462.483 72.2541 463.509 71.8622 464.293 71.0782C465.852 69.5102 465.852 66.9623 464.284 65.4036ZM461.186 67.3823L460.906 67.6623L458.059 70.5089L455.212 67.6623L454.932 67.3823C454.148 66.5983 454.148 65.3196 454.932 64.5357C455.324 64.1437 455.838 63.9477 456.36 63.9477C456.874 63.9477 457.387 64.1437 457.788 64.5357L458.068 64.8157L458.348 64.5357C458.74 64.1437 459.254 63.9477 459.776 63.9477C460.299 63.9477 460.803 64.1437 461.204 64.5357C461.969 65.3196 461.969 66.589 461.186 67.3823Z" fill="#FEAFBD"/>
<path d="M460.752 74.3261L458.072 71.6467L455.393 74.3261L458.072 77.0055L460.752 74.3261Z" fill="#FEAFBD"/>
<path d="M405.151 42.5998L409.987 47.8347C411.027 48.9608 412.783 49.0309 413.91 47.9913L417.294 51.6549C417.574 51.9579 417.963 52.1373 418.375 52.1536C418.787 52.17 419.189 52.0219 419.492 51.742L421.594 54.0184C422.524 53.16 422.581 51.7109 421.723 50.7817L417.348 46.0463L417.367 46.0286C417.929 45.5096 418.262 44.7886 418.292 44.0242C418.323 43.2599 418.048 42.5148 417.529 41.9529C417.722 41.7746 417.836 41.527 417.847 41.2645C417.857 41.0019 417.763 40.746 417.584 40.553L412.5 35.0492L405.151 42.5998Z" fill="#FE330D"/>
<path d="M406.933 41.647L409.88 44.8374C410.667 45.6894 411.996 45.742 412.847 44.955L415.306 47.6161C415.659 47.2904 415.868 46.8376 415.887 46.3576C415.907 45.8775 415.734 45.4094 415.408 45.0565L412.778 42.209C413.402 41.632 413.771 40.8305 413.803 39.9812C413.836 39.1319 413.53 38.3045 412.952 37.6814L412.157 36.8211L406.933 41.647Z" fill="#FED467"/>
<path d="M404.263 30.9033L410.658 29.9411C412.313 29.6932 413.955 30.4699 414.813 31.9074L418.228 37.6397L414.969 40.6348L404.263 30.9033Z" fill="white"/>
<path d="M401.321 33.6001L399.825 39.8918C399.442 41.5199 400.079 43.2187 401.438 44.1932L406.853 48.0846L410.112 45.0895L401.321 33.6001Z" fill="#8CD4EA"/>
<path d="M390.777 19.18L391.206 23.1375C391.626 27.0942 393.271 30.8211 395.911 33.7973C395.979 33.8706 396.045 33.9415 396.108 34.01L405.475 43.251L409.498 39.554L413.436 35.9365L405.101 25.7487C405.034 25.6754 404.968 25.6045 404.905 25.536C402.166 22.6527 398.595 20.6966 394.691 19.9406L390.777 19.18Z" fill="white"/>
<path d="M413.442 35.9403L405.106 25.7536C405.039 25.6803 404.973 25.6094 404.91 25.5409C402.171 22.655 398.598 20.6971 394.692 19.9407L390.783 19.1757L409.506 39.5567L413.442 35.9403Z" fill="#FEAFBD"/>
<circle cx="398.706" cy="27.8135" r="3.37709" transform="rotate(-132.591 398.706 27.8135)" fill="white"/>
<circle cx="398.706" cy="27.8133" r="2.55722" transform="rotate(-132.591 398.706 27.8133)" fill="#2200CC"/>
<path d="M417.251 55.2036C418.094 54.4251 419.408 54.4772 420.186 55.3199L421.539 56.7837C420.696 57.5622 419.382 57.5101 418.603 56.6674L417.251 55.2036V55.2036Z" fill="#FE330D"/>
<path d="M420.94 47.859L420.426 47.3022C420.052 46.8975 419.854 46.3609 419.876 45.8104C419.898 45.2599 420.137 44.7406 420.542 44.3667L421.056 44.9236C421.835 45.7663 421.783 47.0806 420.94 47.859V47.859Z" fill="#FE330D"/>
<path d="M100 0.999998L121.781 22.7249C122.064 23.0075 122.074 23.4626 121.803 23.7568C121.661 23.9117 121.461 24 121.25 24C121.04 24 120.84 23.9117 120.698 23.7568L100 0.999998Z" fill="#FBE4A8"/>
<path d="M160 24L181.781 45.7249C182.064 46.0075 182.074 46.4626 181.803 46.7568C181.661 46.9117 181.461 47 181.25 47C181.04 47 180.84 46.9117 180.698 46.7568L160 24Z" fill="#FBE4A8"/>
<path d="M149 58L170.781 79.7249C171.064 80.0075 171.074 80.4626 170.803 80.7568C170.661 80.9117 170.461 81 170.25 81C170.04 81 169.84 80.9117 169.698 80.7568L149 58Z" fill="#FBE4A8"/>
<circle cx="216.5" cy="26.5" r="1.5" fill="#FBE4A8"/>
<circle cx="300.5" cy="8.5" r="1.5" fill="#FBE4A8"/>
<circle cx="363.5" cy="10.5" r="1.5" fill="#FBE4A8"/>
<circle cx="100.5" cy="41.5" r="1.5" fill="#FBE4A8"/>
<circle cx="142.5" cy="33.5" r="1.5" fill="#FBE4A8"/>
<circle cx="147.5" cy="5.5" r="1.5" fill="#FBE4A8"/>
<circle cx="177.5" cy="20.5" r="1.5" fill="#FBE4A8"/>
<circle cx="264.5" cy="6.5" r="1.5" fill="#FBE4A8"/>
<circle cx="284.5" cy="77.5" r="1.5" fill="#FBE4A8"/>
<circle cx="402.5" cy="5.5" r="1.5" fill="#FBE4A8"/>
<circle cx="369.5" cy="41.5" r="1.5" fill="#FBE4A8"/>
<circle cx="322.5" cy="39.5" r="1.5" fill="#FFDAE2"/>
<circle cx="337.5" cy="21.5" r="1.5" fill="#FFDAE2"/>
<circle cx="344.5" cy="49.5" r="1.5" fill="#FFDAE2"/>
<circle cx="254.5" cy="25.5" r="1.5" fill="#FFDAE2"/>
<path d="M287 37L308.781 58.7249C309.064 59.0075 309.074 59.4626 308.803 59.7568C308.661 59.9117 308.461 60 308.25 60C308.04 60 307.84 59.9117 307.698 59.7568L287 37Z" fill="#FBE4A8"/>
<path d="M387 72H326C326 66.6979 330.402 62.3996 335.833 62.3996H341.218C341.218 56.1038 346.446 51 352.894 51H365.183C367.729 51 369.793 53.0151 369.793 55.5008H370.101C374.583 55.5008 378.881 57.2391 382.05 60.3333C385.22 63.4275 387 67.6241 387 72Z" fill="#334492"/>
<path d="M315 81H284C284 78.2227 286.237 75.9712 288.997 75.9712H291.734C291.734 72.6734 294.39 70 297.667 70H303.913C305.207 70 306.255 71.0555 306.255 72.3575H306.412C308.69 72.3575 310.874 73.2681 312.485 74.8889C314.095 76.5096 315 78.7079 315 81Z" fill="#334492"/>
<path d="M131.811 51.4112C130.818 48.1209 122.764 47.8958 111.965 50.358C113.139 51.5546 114.127 52.9465 114.89 54.4818C117.194 54.5142 118.703 55.0246 119.015 56.0574C119.326 57.0902 118.393 58.4891 116.559 60.0262C113.69 62.4259 108.61 65.1486 102.587 67.3431C96.5653 69.5377 90.9941 70.6658 87.3767 70.6152C85.0727 70.5828 83.5667 70.0699 83.255 69.0399C82.9434 68.0099 83.8765 66.6082 85.7103 65.0711C85.4883 63.3398 85.5209 61.5775 85.8071 59.8484C75.8049 64.9431 69.466 70.3959 70.4586 73.6862C71.4512 76.9764 79.508 77.2018 90.307 74.7396C94.8061 73.6958 99.2488 72.3716 103.612 70.7739C107.983 69.1981 112.269 67.3508 116.447 65.2416C126.462 60.1568 132.802 54.7155 131.811 51.4112Z" fill="#8CD4EA"/>
<path d="M116.219 60.1976C115.97 58.2657 115.404 56.4005 114.546 54.6874C113.781 53.1613 112.792 51.7777 111.617 50.5878C111.135 50.0974 110.624 49.6409 110.087 49.2212L110.029 49.1723L109.967 49.1287C104.104 44.6666 96.0719 45.1572 90.5956 50.3118C85.1194 55.4664 83.6483 63.9208 87.0479 70.7017C90.6557 70.7534 96.2253 69.6307 102.26 67.4616C108.294 65.2926 113.353 62.583 116.219 60.1976Z" fill="#334492"/>
<path d="M90.7068 74.4612C94.5988 78.4791 100.174 79.972 105.423 78.4023C110.673 76.8325 114.842 72.4262 116.428 66.7704C116.604 66.1355 116.745 65.4906 116.851 64.839C112.672 66.9746 108.385 68.8456 104.013 70.4426C99.6489 72.0607 95.2059 73.4025 90.7068 74.4612H90.7068Z" fill="#334492"/>
<circle cx="221.5" cy="63.5" r="1.5" fill="#FFDAE2"/>
<circle cx="239.5" cy="78.5" r="1.5" fill="#FFDAE2"/>
<circle cx="263.5" cy="67.5" r="1.5" fill="#FFDAE2"/>
<circle cx="188.5" cy="70.5" r="1.5" fill="#FBE4A8"/>
<circle cx="200.5" cy="79.5" r="1.5" fill="#FBE4A8"/>
<circle cx="281.5" cy="20.5" r="1.5" fill="#FBE4A8"/>
<circle cx="302.5" cy="27.5" r="1.5" fill="#FBE4A8"/>
<circle cx="236.5" cy="9.5" r="1.5" fill="#FBE4A8"/>
<circle cx="197.5" cy="14.5" r="1.5" fill="#FBE4A8"/>
<path d="M212 4L233.781 25.7249C234.064 26.0075 234.074 26.4626 233.803 26.7568C233.661 26.9117 233.461 27 233.25 27C233.04 27 232.84 26.9117 232.698 26.7568L212 4Z" fill="#FBE4A8"/>
<circle cx="82.5" cy="16.5" r="1.5" fill="#FFDAE2"/>
</g>
<defs>
<filter id="filter0_d_448_8170" x="-61.2285" y="-28.5645" width="167.851" height="169.537" filterUnits="userSpaceOnUse" color-interpolation-filters="sRGB">
<feFlood flood-opacity="0" result="BackgroundImageFix"/>
<feColorMatrix in="SourceAlpha" type="matrix" values="0 0 0 0 0 0 0 0 0 0 0 0 0 0 0 0 0 0 127 0" result="hardAlpha"/>
<feOffset dy="4"/>
<feGaussianBlur stdDeviation="17"/>
<feComposite in2="hardAlpha" operator="out"/>
<feColorMatrix type="matrix" values="0 0 0 0 0 0 0 0 0 0 0 0 0 0 0 0 0 0 0.25 0"/>
<feBlend mode="normal" in2="BackgroundImageFix" result="effect1_dropShadow_448_8170"/>
<feBlend mode="normal" in="SourceGraphic" in2="effect1_dropShadow_448_8170" result="shape"/>
</filter>
<filter id="filter1_d_448_8170" x="-33.6963" y="6.6731" width="136.894" height="155.236" filterUnits="userSpaceOnUse" color-interpolation-filters="sRGB">
<feFlood flood-opacity="0" result="BackgroundImageFix"/>
<feColorMatrix in="SourceAlpha" type="matrix" values="0 0 0 0 0 0 0 0 0 0 0 0 0 0 0 0 0 0 127 0" result="hardAlpha"/>
<feOffset dy="4"/>
<feGaussianBlur stdDeviation="17"/>
<feComposite in2="hardAlpha" operator="out"/>
<feColorMatrix type="matrix" values="0 0 0 0 0 0 0 0 0 0 0 0 0 0 0 0 0 0 0.25 0"/>
<feBlend mode="normal" in2="BackgroundImageFix" result="effect1_dropShadow_448_8170"/>
<feBlend mode="normal" in="SourceGraphic" in2="effect1_dropShadow_448_8170" result="shape"/>
</filter>
<filter id="filter2_d_448_8170" x="-68.8535" y="36.989" width="165.481" height="168.571" filterUnits="userSpaceOnUse" color-interpolation-filters="sRGB">
<feFlood flood-opacity="0" result="BackgroundImageFix"/>
<feColorMatrix in="SourceAlpha" type="matrix" values="0 0 0 0 0 0 0 0 0 0 0 0 0 0 0 0 0 0 127 0" result="hardAlpha"/>
<feOffset dy="4"/>
<feGaussianBlur stdDeviation="17"/>
<feComposite in2="hardAlpha" operator="out"/>
<feColorMatrix type="matrix" values="0 0 0 0 0 0 0 0 0 0 0 0 0 0 0 0 0 0 0.25 0"/>
<feBlend mode="normal" in2="BackgroundImageFix" result="effect1_dropShadow_448_8170"/>
<feBlend mode="normal" in="SourceGraphic" in2="effect1_dropShadow_448_8170" result="shape"/>
</filter>
<radialGradient id="paint0_radial_448_8170" cx="0" cy="0" r="1" gradientUnits="userSpaceOnUse" gradientTransform="translate(458 67.9999) rotate(90) scale(50.8046)">
<stop offset="0.744792" stop-color="#222C55" stop-opacity="0"/>
<stop offset="1" stop-color="#1B244B"/>
</radialGradient>
<radialGradient id="paint1_radial_448_8170" cx="0" cy="0" r="1" gradientUnits="userSpaceOnUse" gradientTransform="translate(458 68) rotate(90) scale(68)">
<stop offset="0.744792" stop-color="#222C55" stop-opacity="0"/>
<stop offset="1" stop-color="#1B244B"/>
</radialGradient>
<clipPath id="clip0_448_8170">
<rect width="480" height="88" fill="white"/>
</clipPath>
</defs>
</svg>
