<?xml version="1.0" encoding="utf-8"?>
<!-- Generator: Adobe Illustrator 23.0.1, SVG Export Plug-In . SVG Version: 6.00 Build 0)  -->
<svg version="1.1" id="Layer_1" xmlns="http://www.w3.org/2000/svg" xmlns:xlink="http://www.w3.org/1999/xlink" x="0px" y="0px"
	 viewBox="0 0 1000 1000" style="enable-background:new 0 0 1000 1000;" xml:space="preserve">
<style type="text/css">
	.st0{fill:#FFFFFF;}
</style>
<g>
	<path class="st0" d="M673.7,425L658,409.4l-158-158l-158,158L326.3,425c-43.6,43.6-43.6,114.4,0,158c21.8,21.8,50.4,32.7,79,32.7
		s57.2-10.9,79-32.7l15.6-15.6l15.6,15.6c21.8,21.8,50.4,32.7,79,32.7s57.2-10.9,79-32.7C717.3,539.4,717.3,468.6,673.7,425z
		 M587.3,480.2l-7.9,7.8L500,567.4L420.6,488l-7.9-7.8c-21.9-21.9-21.9-57.5,0-79.4c11-11,25.3-16.4,39.7-16.4
		c14.4,0,28.7,5.5,39.7,16.4l7.9,7.8l7.9-7.8c11-11,25.3-16.4,39.7-16.4c14.4,0,28.7,5.5,39.7,16.4
		C609.2,422.7,609.2,458.2,587.3,480.2z"/>
	
		<rect x="447.6" y="621.1" transform="matrix(0.7071 0.7071 -0.7071 0.7071 623.0957 -156.4565)" class="st0" width="105.7" height="105.7"/>
</g>
</svg>
