<?xml version="1.0" encoding="utf-8"?>
<!-- Generator: Adobe Illustrator 23.0.1, SVG Export Plug-In . SVG Version: 6.00 Build 0)  -->
<svg version="1.1" id="Layer_1" xmlns="http://www.w3.org/2000/svg" xmlns:xlink="http://www.w3.org/1999/xlink" x="0px" y="0px"
	 viewBox="0 0 1000 1000" style="enable-background:new 0 0 1000 1000;" xml:space="preserve">
<style type="text/css">
	.st0{fill:#010101;}
</style>
<g>
	<path class="st0" d="M336.5,471.2l-6-6l-60.7-60.7L209,465.2l-6,6c-16.8,16.8-16.8,44,0,60.8c8.4,8.4,19.4,12.6,30.4,12.6
		s22-4.2,30.4-12.6l6-6l6,6c8.4,8.4,19.4,12.6,30.4,12.6c11,0,22-4.2,30.4-12.6C353.3,515.2,353.3,487.9,336.5,471.2z M303.3,492.4
		l-3,3l-30.5,30.5l-30.5-30.5l-3-3c-8.4-8.4-8.4-22.1,0-30.5c4.2-4.2,9.7-6.3,15.3-6.3c5.5,0,11,2.1,15.3,6.3l3,3l3-3
		c4.2-4.2,9.7-6.3,15.3-6.3s11,2.1,15.3,6.3C311.7,470.3,311.7,483.9,303.3,492.4z"/>
	<path class="st0" d="M749.7,481.2c11.2-14.7,34-13.5,44.6-6.2c7.8,5.4,12.3,12.9,14.2,22c0.8,3.9,1.1,7.9,1.1,12
		c0,17.2,0,34.3,0,51.5c0,1.9-0.6,2.2-2.2,2.2c-6.3-0.1-12.6-0.1-18.9,0c-1.5,0-1.9-0.3-1.9-1.9c0.1-16.5,0.1-33,0-49.5
		c0-5.6-1.3-10.8-5.4-14.9c-5.8-5.7-12.7-6.4-20-4.1c-6.8,2.2-9.8,7.7-11,14.3c-0.3,2-0.4,4-0.4,6c0,16.1,0,32.2,0,48.3
		c0,1.5-0.3,2-1.9,2c-6.5-0.1-13-0.1-19.5,0c-1.4,0-1.7-0.4-1.7-1.8c0-39.3,0-78.7,0-118c0-1.3,0.3-1.7,1.6-1.7
		c6.5,0.1,13.1,0.1,19.6,0c1.5,0,1.8,0.5,1.8,1.9c-0.1,11.9,0,23.7,0,35.6C749.7,479.4,749.7,480.1,749.7,481.2z"/>
	<path class="st0" d="M404.9,501.7c0-19.5,0-38.9,0-58.4c0-1.5,0.3-2,1.9-1.9c24.2,0.1,48.5,0.1,72.7,0c1.7,0,2,0.5,2,2.1
		c-0.1,6.2-0.1,12.4,0,18.6c0,1.4-0.4,1.7-1.8,1.7c-16.5,0-32.9,0-49.4-0.1c-1.6,0-2,0.4-2,1.9c0.1,8.5,0.1,17,0,25.5
		c0,1.4,0.3,1.9,1.8,1.9c13.9-0.1,27.7,0,41.6-0.1c1.9,0,2.2,0.5,2.2,2.3c-0.1,6.1-0.1,12.2,0,18.2c0,1.7-0.6,1.9-2,1.9
		c-13.8,0-27.6,0-41.4-0.1c-1.9,0-2.2,0.6-2.2,2.3c0.1,14.3,0,28.6,0.1,42.8c0,1.6-0.3,2.2-2.1,2.2c-6.5-0.1-13.1-0.1-19.6,0
		c-1.7,0-1.9-0.5-1.9-2C404.9,540.9,404.9,521.3,404.9,501.7z"/>
	<path class="st0" d="M542.3,500.7c0-9,0-18.1,0-27.1c0-1.4,0.4-1.7,1.7-1.7c6.5,0.1,13,0.1,19.5,0c1.6,0,2,0.4,1.9,1.9
		c-0.3,15.3-0.5,30.5-0.8,45.8c-0.1,5.6,0.8,11.1,4.2,15.8c4.7,6.5,11.2,8.6,18.9,7.3c7.9-1.3,12.5-6.4,14.8-13.8
		c0.9-2.9,1.1-5.9,1.1-8.9c0-15.4,0-30.8,0-46.2c0-1.5,0.3-2,1.9-1.9c6.5,0.1,13,0.1,19.5,0c1.2,0,1.7,0.2,1.7,1.6
		c-0.1,16.3,0,32.7-0.1,49c0,7.9-1.4,15.6-5.5,22.6c-5.6,9.6-13.8,15.6-24.6,18.1c-10.1,2.3-20.1,2.1-29.7-1.8
		c-12.9-5.2-20.5-14.9-23.4-28.5c-0.8-3.7-1-7.5-1-11.2C542.3,514.7,542.3,507.7,542.3,500.7z"/>
	<path class="st0" d="M675.9,565.2c-9.7-0.1-18.1-1.4-25.8-5.6c-4.2-2.3-7.9-5.3-11.1-9c-0.5-0.6-0.5-0.9,0-1.5
		c3.7-4.4,7.4-8.8,11-13.2c0.9-1.1,1.2-0.2,1.7,0.3c4.6,4.9,10.1,8.3,16.8,9.6c4.9,1,10,1.5,14.8-0.5c3.4-1.4,5.5-3.9,5.7-7.6
		c0.2-3.3-1.5-5.5-4.2-7.2c-2.1-1.4-4.5-2.4-6.9-3.1c-7.8-2.3-15.4-5-22.7-8.9c-9.2-4.8-13.8-14.5-12.6-25
		c1.3-11.5,10.4-20.7,22.7-23c9.9-1.9,19.7-1.3,29.3,2.2c5.9,2.1,10.8,5.8,14.6,10.8c0.6,0.8,0.4,1.3-0.2,1.9
		c-3.6,3.8-7.1,7.7-10.6,11.6c-0.8,1-1.3,0.8-2-0.1c-3.7-4.2-8.3-7.1-13.9-8.2c-4.3-0.9-8.7-1.2-12.9,0.4c-3,1.1-5.1,3-5.5,6.5
		c-0.4,3.7,1.4,6.1,4.4,7.7c4.8,2.6,10,4,15.2,5.7c5.4,1.7,10.9,3.1,15.7,6.3c8.8,5.9,12.3,14.2,11.2,24.6
		c-1.2,11.8-10.4,20.6-21.7,23.6C684.3,564.7,679.6,565.1,675.9,565.2z"/>
	<path class="st0" d="M499.1,502c0-19.5,0-39,0-58.6c0-1.8,0.5-2.1,2.1-2.1c6.4,0.1,12.9,0.1,19.3,0c1.3,0,1.7,0.3,1.7,1.7
		c0,39.3,0,78.6,0,117.8c0,1.3-0.2,1.7-1.6,1.7c-6.5-0.1-13.1-0.1-19.6,0c-1.5,0-1.8-0.3-1.8-1.8C499.1,541.2,499.1,521.6,499.1,502
		z"/>
	
		<rect x="249.6" y="546.5" transform="matrix(0.7071 0.7071 -0.7071 0.7071 479.8816 -24.8287)" class="st0" width="40.6" height="40.6"/>
</g>
</svg>
